<svg width="27" height="19" viewBox="0 0 27 19" fill="none" xmlns="http://www.w3.org/2000/svg">
<path d="M4.29 18.1C3.57133 18.1 2.98467 17.8947 2.53 17.484C2.07533 17.0733 1.848 16.4647 1.848 15.658V11.61C1.848 11.0967 1.75267 10.752 1.562 10.576C1.37133 10.3853 1.00467 10.29 0.462 10.29V8.31C1.00467 8.31 1.37133 8.222 1.562 8.046C1.75267 7.85533 1.848 7.50333 1.848 6.99V2.942C1.848 2.13533 2.07533 1.52667 2.53 1.116C2.98467 0.705332 3.57133 0.499999 4.29 0.499999H5.522V2.48H5.17C4.774 2.48 4.48067 2.59733 4.29 2.832C4.09933 3.052 4.004 3.45533 4.004 4.042V7.342C4.004 8.36867 3.55667 9.014 2.662 9.278V9.322C3.55667 9.586 4.004 10.2313 4.004 11.258V14.558C4.004 15.1447 4.09933 15.5553 4.29 15.79C4.48067 16.01 4.774 16.12 5.17 16.12H5.522V18.1H4.29ZM10.5055 1.6H16.9075V3.8H12.9255V8.09H16.0495V10.29H12.9255V17H10.5055V1.6ZM21.2395 16.12H21.5915C21.9875 16.12 22.2808 16.01 22.4715 15.79C22.6621 15.5553 22.7575 15.1447 22.7575 14.558V11.258C22.7575 10.2313 23.2048 9.586 24.0995 9.322V9.278C23.2048 9.014 22.7575 8.36867 22.7575 7.342V4.042C22.7575 3.45533 22.6621 3.052 22.4715 2.832C22.2808 2.59733 21.9875 2.48 21.5915 2.48H21.2395V0.499999H22.4715C23.1901 0.499999 23.7768 0.705332 24.2315 1.116C24.6861 1.52667 24.9135 2.13533 24.9135 2.942V6.99C24.9135 7.50333 25.0088 7.85533 25.1995 8.046C25.3901 8.222 25.7568 8.31 26.2995 8.31V10.29C25.7568 10.29 25.3901 10.3853 25.1995 10.576C25.0088 10.752 24.9135 11.0967 24.9135 11.61V15.658C24.9135 16.4647 24.6861 17.0733 24.2315 17.484C23.7768 17.8947 23.1901 18.1 22.4715 18.1H21.2395V16.12Z" fill="url(#paint0_linear_10_3)"/>
<defs>
<linearGradient id="paint0_linear_10_3" x1="1.2505" y1="19" x2="27" y2="19" gradientUnits="userSpaceOnUse">
<stop stop-color="#A38CFF"/>
<stop offset="1" stop-color="#6431CF"/>
</linearGradient>
</defs>
</svg>
